# xmcd CD database file
#
# Track frame offsets:
#	150
#	14790
#	30615
#	43805
#	56997
#	67054
#	78949
#	95038
#	107488
#	120030
#	134900
#	151033
#	164292
#	178331
#	190756
#	203852
#	217936
#	232850
#	245804
#	258052
#
# Disc length: 3640 seconds
#
# Revision: 0
# Processed by: cddbd v1.5.2PL0 Copyright (c) Steve Scherf et al.
# Submitted via: CDex 1.70beta2
#
DISCID=190e3614
DTITLE=Frank Sinatra - Jazz Masters 09
DYEAR=1900
DGENRE=Jazz
TTITLE0=I get a kick out of you
TTITLE1=I've got you under my skin
TTITLE2=Come fly with me
TTITLE3=Young at Heart
TTITLE4=Love and Marrige
TTITLE5=A foggy day
TTITLE6=Hello young lovers
TTITLE7=All the things you are
TTITLE8=Can't we be friends?
TTITLE9=Embraceable you
TTITLE10=I get along without you very well
TTITLE11=How deep is the ocean
TTITLE12=I don't stand a ghost of a chance with you
TTITLE13=All of me
TTITLE14=Dancing on the ceiling
TTITLE15=Laura
TTITLE16=A fellow needs a girl
TTITLE17=I don't know why
TTITLE18=In the wee small hours of the morning
TTITLE19=I Won't Dance
EXTD=
EXTT0=
EXTT1=
EXTT2=
EXTT3=
EXTT4=
EXTT5=
EXTT6=
EXTT7=
EXTT8=
EXTT9=
EXTT10=
EXTT11=
EXTT12=
EXTT13=
EXTT14=
EXTT15=
EXTT16=
EXTT17=
EXTT18=
EXTT19=
PLAYORDER=
